{"accessors":[{"bufferView":0,"componentType":5126,"count":774,"max":[20.0,4.0,16.0],"min":[-4.0,-3.0,-24.0],"normalized":false,"type":"VEC3"},{"bufferView":1,"componentType":5126,"count":774,"max":[0.0000610388815402985,0.0,0.0000152592547237873,1.0],"min":[-1.0,-1.0,-1.0,1.0],"normalized":false,"type":"VEC4"},{"bufferView":2,"componentType":5126,"count":774,"max":[1.0,1.0,1.0],"min":[-1.0,-1.0,-1.0],"normalized":false,"type":"VEC3"},{"bufferView":3,"componentType":5126,"count":774,"max":[1.0,1.0],"min":[0.0,0.0],"normalized":false,"type":"VEC2"},{"bufferView":4,"componentType":5123,"count":774,"max":[773.0],"min":[0.0],"normalized":false,"type":"SCALAR"},{"bufferView":5,"componentType":5126,"count":30,"max":[8.0,3.0,16.0],"min":[5.0,-2.0,10.0124797821045],"normalized":false,"type":"VEC3"},{"bufferView":6,"componentType":5126,"count":30,"max":[1.0,0.0000305189751088619,-0.000015259487554431,-1.0],"min":[-1.0,0.0,-1.0,-1.0],"normalized":false,"type":"VEC4"},{"bufferView":7,"componentType":5126,"count":30,"max":[0.554661154747009,0.832043826580048,1.0],"min":[-0.55470997095108,-0.832076370716095,-1.0],"normalized":false,"type":"VEC3"},{"bufferView":8,"componentType":5126,"count":30,"max":[1.0,1.0],"min":[0.0,0.125],"normalized":false,"type":"VEC2"},{"bufferView":9,"componentType":5123,"count":30,"max":[29.0],"min":[0.0],"normalized":false,"type":"SCALAR"},{"bufferView":10,"componentType":5126,"count":36,"max":[0.5,0.0500000007450581,1.0],"min":[-0.5,-0.0500000007450581,-1.0],"normalized":false,"type":"VEC3"},{"bufferView":11,"componentType":5126,"count":36,"max":[0.0,0.0,0.0000763009302318096,-1.0],"min":[-1.0,-1.0,-1.0,-1.0],"normalized":false,"type":"VEC4"},{"bufferView":12,"componentType":5126,"count":36,"max":[1.0,1.0,1.0],"min":[-1.0,-1.0,-1.0],"normalized":false,"type":"VEC3"},{"bufferView":13,"componentType":5126,"count":36,"max":[1.0,1.0],"min":[0.0,0.0],"normalized":false,"type":"VEC2"},{"bufferView":14,"componentType":5123,"count":36,"max":[35.0],"min":[0.0],"normalized":false,"type":"SCALAR"},{"bufferView":15,"componentType":5126,"count":36,"max":[4.0,1.0,1.0],"min":[-4.0,-1.0,-1.0],"normalized":false,"type":"VEC3"},{"bufferView":16,"componentType":5126,"count":36,"max":[0.0,0.0,0.0000763009302318096,-1.0],"min":[-1.0,-1.0,-1.0,-1.0],"normalized":false,"type":"VEC4"},{"bufferView":17,"componentType":5126,"count":36,"max":[1.0,1.0,1.0],"min":[-1.0,-1.0,-1.0],"normalized":false,"type":"VEC3"},{"bufferView":18,"componentType":5126,"count":36,"max":[1.0,1.0],"min":[0.0,0.0],"normalized":false,"type":"VEC2"},{"bufferView":19,"componentType":5123,"count":36,"max":[35.0],"min":[0.0],"normalized":false,"type":"SCALAR"},{"bufferView":20,"componentType":5126,"count":36,"max":[4.0,1.0,1.0],"min":[-4.0,-1.0,-1.0],"normalized":false,"type":"VEC3"},{"bufferView":21,"componentType":5126,"count":36,"max":[0.0,0.0,0.0000763009302318096,-1.0],"min":[-1.0,-1.0,-1.0,-1.0],"normalized":false,"type":"VEC4"},{"bufferView":22,"componentType":5126,"count":36,"max":[1.0,1.0,1.0],"min":[-1.0,-1.0,-1.0],"normalized":false,"type":"VEC3"},{"bufferView":23,"componentType":5126,"count":36,"max":[1.0,1.0],"min":[0.0,0.0],"normalized":false,"type":"VEC2"},{"bufferView":24,"componentType":5123,"count":36,"max":[35.0],"min":[0.0],"normalized":false,"type":"SCALAR"},{"bufferView":25,"componentType":5126,"count":36,"max":[1.0,2.0,0.0],"min":[-2.0,0.0,-1.0],"normalized":false,"type":"VEC3"},{"bufferView":26,"componentType":5126,"count":36,"max":[1.0,0.0,-0.0000152590218931437,1.0],"min":[-1.0,0.0,-1.0,1.0],"normalized":false,"type":"VEC4"},{"bufferView":27,"componentType":5126,"count":36,"max":[1.0,0.832043826580048,1.0],"min":[-0.55470997095108,-1.0,-1.0],"normalized":false,"type":"VEC3"},{"bufferView":28,"componentType":5126,"count":36,"max":[1.0,1.0],"min":[0.0,0.0],"normalized":false,"type":"VEC2"},{"bufferView":29,"componentType":5123,"count":36,"max":[35.0],"min":[0.0],"normalized":false,"type":"SCALAR"},{"bufferView":30,"componentType":5126,"count":36,"max":[1.0,2.0,0.0],"min":[-2.0,0.0,-1.0],"normalized":false,"type":"VEC3"},{"bufferView":31,"componentType":5126,"count":36,"max":[1.0,0.0,-0.0000152590218931437,1.0],"min":[-1.0,0.0,-1.0,1.0],"normalized":false,"type":"VEC4"},{"bufferView":32,"componentType":5126,"count":36,"max":[1.0,0.832043826580048,1.0],"min":[-0.55470997095108,-1.0,-1.0],"normalized":false,"type":"VEC3"},{"bufferView":33,"componentType":5126,"count":36,"max":[1.0,1.0],"min":[0.0,0.0],"normalized":false,"type":"VEC2"},{"bufferView":34,"componentType":5123,"count":36,"max":[35.0],"min":[0.0],"normalized":false,"type":"SCALAR"}],"asset":{"generator":"Godot Engine v4.5.1.stable.official@f62fdbde15035c5576dad93e586201f4d41ef0cb","version":"2.0"},"bufferViews":[{"buffer":0,"byteLength":9288,"byteStride":12,"target":34962},{"buffer":0,"byteLength":12384,"byteOffset":9288,"byteStride":16,"target":34962},{"buffer":0,"byteLength":9288,"byteOffset":21672,"byteStride":12,"target":34962},{"buffer":0,"byteLength":6192,"byteOffset":30960,"byteStride":8,"target":34962},{"buffer":0,"byteLength":1548,"byteOffset":37152,"target":34963},{"buffer":0,"byteLength":360,"byteOffset":38700,"byteStride":12,"target":34962},{"buffer":0,"byteLength":480,"byteOffset":39060,"byteStride":16,"target":34962},{"buffer":0,"byteLength":360,"byteOffset":39540,"byteStride":12,"target":34962},{"buffer":0,"byteLength":240,"byteOffset":39900,"byteStride":8,"target":34962},{"buffer":0,"byteLength":60,"byteOffset":40140,"target":34963},{"buffer":0,"byteLength":432,"byteOffset":40200,"byteStride":12,"target":34962},{"buffer":0,"byteLength":576,"byteOffset":40632,"byteStride":16,"target":34962},{"buffer":0,"byteLength":432,"byteOffset":41208,"byteStride":12,"target":34962},{"buffer":0,"byteLength":288,"byteOffset":41640,"byteStride":8,"target":34962},{"buffer":0,"byteLength":72,"byteOffset":41928,"target":34963},{"buffer":0,"byteLength":432,"byteOffset":42000,"byteStride":12,"target":34962},{"buffer":0,"byteLength":576,"byteOffset":42432,"byteStride":16,"target":34962},{"buffer":0,"byteLength":432,"byteOffset":43008,"byteStride":12,"target":34962},{"buffer":0,"byteLength":288,"byteOffset":43440,"byteStride":8,"target":34962},{"buffer":0,"byteLength":72,"byteOffset":43728,"target":34963},{"buffer":0,"byteLength":432,"byteOffset":43800,"byteStride":12,"target":34962},{"buffer":0,"byteLength":576,"byteOffset":44232,"byteStride":16,"target":34962},{"buffer":0,"byteLength":432,"byteOffset":44808,"byteStride":12,"target":34962},{"buffer":0,"byteLength":288,"byteOffset":45240,"byteStride":8,"target":34962},{"buffer":0,"byteLength":72,"byteOffset":45528,"target":34963},{"buffer":0,"byteLength":432,"byteOffset":45600,"byteStride":12,"target":34962},{"buffer":0,"byteLength":576,"byteOffset":46032,"byteStride":16,"target":34962},{"buffer":0,"byteLength":432,"byteOffset":46608,"byteStride":12,"target":34962},{"buffer":0,"byteLength":288,"byteOffset":47040,"byteStride":8,"target":34962},{"buffer":0,"byteLength":72,"byteOffset":47328,"target":34963},{"buffer":0,"byteLength":432,"byteOffset":47400,"byteStride":12,"target":34962},{"buffer":0,"byteLength":576,"byteOffset":47832,"byteStride":16,"target":34962},{"buffer":0,"byteLength":432,"byteOffset":48408,"byteStride":12,"target":34962},{"buffer":0,"byteLength":288,"byteOffset":48840,"byteStride":8,"target":34962},{"buffer":0,"byteLength":72,"byteOffset":49128,"target":34963}],"buffers":[{"byteLength":49200,"uri":"main_level0.bin"}],"extensions":{"KHR_lights_punctual":{"lights":[{"type":"directional"}]}},"extensionsRequired":["KHR_node_visibility"],"extensionsUsed":["GODOT_single_root","KHR_lights_punctual","KHR_node_visibility"],"images":[{"uri":"textures%2F_albedo.png"}],"materials":[{"extensions":{},"pbrMetallicRoughness":{"baseColorFactor":[0.0324657000601292,0.0324657000601292,0.0324656777083874,1.0],"baseColorTexture":{"index":0},"metallicFactor":0.0,"roughnessFactor":1.0}}],"meshes":[{"primitives":[{"attributes":{"NORMAL":2,"POSITION":0,"TANGENT":1,"TEXCOORD_0":3},"indices":4,"material":0,"mode":4},{"attributes":{"NORMAL":7,"POSITION":5,"TANGENT":6,"TEXCOORD_0":8},"indices":9,"material":0,"mode":4}]},{"primitives":[{"attributes":{"NORMAL":12,"POSITION":10,"TANGENT":11,"TEXCOORD_0":13},"indices":14,"material":0,"mode":4}]},{"primitives":[{"attributes":{"NORMAL":17,"POSITION":15,"TANGENT":16,"TEXCOORD_0":18},"indices":19,"material":0,"mode":4}]},{"primitives":[{"attributes":{"NORMAL":22,"POSITION":20,"TANGENT":21,"TEXCOORD_0":23},"indices":24,"material":0,"mode":4}]},{"primitives":[{"attributes":{"NORMAL":27,"POSITION":25,"TANGENT":26,"TEXCOORD_0":28},"indices":29,"material":0,"mode":4}]},{"primitives":[{"attributes":{"NORMAL":32,"POSITION":30,"TANGENT":31,"TEXCOORD_0":33},"indices":34,"material":0,"mode":4}]}],"nodes":[{"children":[1,2,3,21,22,23,24,25,26],"name":"MainLevel"},{"name":"WorldEnvironment"},{"extensions":{"KHR_lights_punctual":{"light":0}},"name":"DirectionalLight3D","rotation":[-0.129409551620483,0.836516261100769,0.482962936162949,0.224143892526627]},{"children":[4],"mesh":0,"name":"Room2","translation":[0.0,2.0,0.0]},{"children":[5,6,7,8,9,10,11,12,13,14,15,16,17,18,19,20],"name":"CSGCombiner3D"},{"name":"Corridor","translation":[0.0,-1.0,-6.0]},{"name":"Corridor2","translation":[5.0,-1.0,-21.0]},{"name":"Corridor3","translation":[4.5,1.0,-17.0]},{"name":"Corridor6","translation":[5.5,1.0,-11.0]},{"name":"LavaPit","translation":[9.0,-2.0,-22.0]},{"name":"LavaPit3","translation":[4.0,-2.0,13.0]},{"name":"Corridor4","translation":[9.0,1.0,-14.0]},{"name":"Corridor5","translation":[16.0,1.0,8.0]},{"name":"Room22","translation":[0.0,0.0,-16.0]},{"name":"Room6","translation":[2.0,0.0,13.0]},{"name":"Room3","translation":[10.0,0.0,-20.0]},{"name":"Room4","translation":[13.0,2.0,-3.0]},{"name":"Room5","translation":[13.0,2.0,13.0]},{"name":"Courtyard","translation":[13.0,0.0,-3.0]},{"name":"LavaPit2","translation":[13.0,0.0,13.0]},{"name":"BigStair","scale":[1.0,1.0,5.98752021789551],"translation":[7.0,0.0,16.0]},{"mesh":1,"name":"SecFloor2","translation":[4.5,1.95000004768372,-21.0130004882813]},{"mesh":2,"name":"SecFloor23","translation":[10.0,1.0,-17.0134410858154]},{"mesh":3,"name":"SecFloor32","translation":[0.0,1.0,-23.0134410858154]},{"mesh":4,"name":"Stair2","rotation":[0.0,0.70710676908493,0.0,0.70710676908493],"scale":[0.999999940395355,1.0,2.0],"translation":[0.0,0.0,-21.0134410858154]},{"mesh":5,"name":"Stair23","rotation":[0.0,-0.707106709480286,0.0,0.707106828689575],"scale":[0.999999940395355,1.0,2.0],"translation":[12.0,0.0,-19.0134410858154]},{"extensions":{"KHR_node_visibility":{"visible":false}},"name":"Sprite3D","rotation":[0.0,-0.70710676908493,0.0,0.70710676908493],"scale":[1.79499995708466,1.79499995708466,1.79499995708466],"translation":[10.0,0.0,-2.0]}],"samplers":[{"magFilter":9729,"minFilter":9987,"wrapS":10497,"wrapT":10497}],"scene":0,"scenes":[{"nodes":[0]}],"textures":[{"sampler":0,"source":0}]}